<svg id="visual" viewBox="0 0 900 600" width="900" height="600" xmlns="http://www.w3.org/2000/svg" xmlns:xlink="http://www.w3.org/1999/xlink" version="1.1"><rect x="0" y="0" width="900" height="600" fill="#ffffff"></rect><defs><linearGradient id="grad1_0" x1="33.3%" y1="0%" x2="100%" y2="100%"><stop offset="20%" stop-color="#003bd8" stop-opacity="1"></stop><stop offset="80%" stop-color="#003bd8" stop-opacity="1"></stop></linearGradient></defs><defs><linearGradient id="grad1_1" x1="33.3%" y1="0%" x2="100%" y2="100%"><stop offset="20%" stop-color="#003bd8" stop-opacity="1"></stop><stop offset="80%" stop-color="#a698ee" stop-opacity="1"></stop></linearGradient></defs><defs><linearGradient id="grad1_2" x1="33.3%" y1="0%" x2="100%" y2="100%"><stop offset="20%" stop-color="#ffffff" stop-opacity="1"></stop><stop offset="80%" stop-color="#a698ee" stop-opacity="1"></stop></linearGradient></defs><defs><linearGradient id="grad2_0" x1="0%" y1="0%" x2="66.7%" y2="100%"><stop offset="20%" stop-color="#003bd8" stop-opacity="1"></stop><stop offset="80%" stop-color="#003bd8" stop-opacity="1"></stop></linearGradient></defs><defs><linearGradient id="grad2_1" x1="0%" y1="0%" x2="66.7%" y2="100%"><stop offset="20%" stop-color="#a698ee" stop-opacity="1"></stop><stop offset="80%" stop-color="#003bd8" stop-opacity="1"></stop></linearGradient></defs><defs><linearGradient id="grad2_2" x1="0%" y1="0%" x2="66.7%" y2="100%"><stop offset="20%" stop-color="#a698ee" stop-opacity="1"></stop><stop offset="80%" stop-color="#ffffff" stop-opacity="1"></stop></linearGradient></defs><g transform="translate(900, 0)"><path d="M0 324.5C-42.7 312.1 -85.4 299.7 -114 275.3C-142.7 250.9 -157.3 214.5 -190.2 190.2C-223.1 165.9 -274.4 153.9 -299.8 124.2C-325.2 94.5 -324.9 47.3 -324.5 0L0 0Z" fill="#d4caf7"></path><path d="M0 216.3C-28.5 208.1 -56.9 199.8 -76 183.5C-95.1 167.3 -104.9 143 -126.8 126.8C-148.8 110.6 -182.9 102.6 -199.9 82.8C-216.8 63 -216.6 31.5 -216.3 0L0 0Z" fill="#7068e3"></path><path d="M0 108.2C-14.2 104 -28.5 99.9 -38 91.8C-47.6 83.6 -52.4 71.5 -63.4 63.4C-74.4 55.3 -91.5 51.3 -99.9 41.4C-108.4 31.5 -108.3 15.8 -108.2 0L0 0Z" fill="#003bd8"></path></g><g transform="translate(0, 600)"><path d="M0 -324.5C42.8 -312.5 85.6 -300.5 114.4 -276.2C143.2 -252 158.1 -215.4 190.9 -190.9C223.7 -166.4 274.5 -154 299.8 -124.2C325.1 -94.4 324.8 -47.2 324.5 0L0 0Z" fill="#d4caf7"></path><path d="M0 -216.3C28.5 -208.3 57.1 -200.3 76.3 -184.2C95.5 -168 105.4 -143.6 127.3 -127.3C149.2 -110.9 183 -102.7 199.9 -82.8C216.7 -62.9 216.5 -31.5 216.3 0L0 0Z" fill="#7068e3"></path><path d="M0 -108.2C14.3 -104.2 28.5 -100.2 38.1 -92.1C47.7 -84 52.7 -71.8 63.6 -63.6C74.6 -55.5 91.5 -51.3 99.9 -41.4C108.4 -31.5 108.3 -15.7 108.2 0L0 0Z" fill="#003bd8"></path></g></svg>