<?xml version="1.0" standalone="no"?>
<svg viewBox="0 0 200 200" xmlns="http://www.w3.org/2000/svg">
  <path fill="#0F62FE" d="M26.3,-37.1C35.3,-35.2,44.7,-29.9,56.9,-20.8C69,-11.7,84,1.2,83.8,13C83.6,24.8,68.3,35.4,54,40.3C39.6,45.2,26.2,44.4,14.8,45.5C3.4,46.6,-6,49.6,-18.2,51.1C-30.5,52.5,-45.5,52.5,-56.7,45.7C-67.9,38.9,-75.4,25.4,-76.6,11.6C-77.7,-2.3,-72.5,-16.5,-64.9,-28.2C-57.4,-39.9,-47.4,-49.1,-36.2,-50C-24.9,-50.9,-12.5,-43.6,-1.9,-40.6C8.7,-37.7,17.3,-39,26.3,-37.1Z" transform="translate(100 100)" />
</svg>
