<svg id="visual" viewBox="0 0 900 600" width="900" height="600" xmlns="http://www.w3.org/2000/svg" xmlns:xlink="http://www.w3.org/1999/xlink" version="1.1"><rect x="0" y="0" width="900" height="600" fill="#ffffff"></rect><path d="M0 496L30 493.5C60 491 120 486 180 476.5C240 467 300 453 360 450C420 447 480 455 540 464C600 473 660 483 720 475.3C780 467.7 840 442.3 870 429.7L900 417L900 601L870 601C840 601 780 601 720 601C660 601 600 601 540 601C480 601 420 601 360 601C300 601 240 601 180 601C120 601 60 601 30 601L0 601Z" fill="#a6a6ff"></path><path d="M0 519L30 519.5C60 520 120 521 180 516.5C240 512 300 502 360 502.7C420 503.3 480 514.7 540 524C600 533.3 660 540.7 720 543.2C780 545.7 840 543.3 870 542.2L900 541L900 601L870 601C840 601 780 601 720 601C660 601 600 601 540 601C480 601 420 601 360 601C300 601 240 601 180 601C120 601 60 601 30 601L0 601Z" fill="#274ae9"></path></svg>